/* XPM */
static const char * icon32x32_xpm[] = {
"32 32 4 1",
" 	c None",
".	c #F0BC3C",
"+	c #FCFCFC",
"@	c #000000",
"................................",
"................................",
"++++++++++++++++++++++++++++@@..",
"++++++++++++++++++++++++++++@@..",
"@@@@@@@@@@@@@@@@@@@@@@@@@@@@@@..",
"@@@@@@@@@@@@@@@@@@@@@@@@@@@@@@..",
"..@@++@@++@@++@@++@@++@@++@@....",
"..@@++@@++@@++@@++@@++@@++@@....",
"....@@@@@@@@@@@@@@@@@@@@@@......",
"....@@@@@@@@@@@@@@@@@@@@@@......",
"....++@@..++@@..++@@..++@@......",
"....++@@..++@@..++@@..++@@......",
"....++@@..++@@..++@@..++@@......",
"....++@@..++@@..++@@..++@@......",
"....++@@..++@@..++@@..++@@......",
"....++@@..++@@..++@@..++@@......",
"....++@@..++@@..++@@..++@@......",
"....++@@..++@@..++@@..++@@......",
"....++@@..++@@..++@@..++@@......",
"....++@@..++@@..++@@..++@@......",
"..@@@@@@@@@@@@@@@@@@@@@@@@@@....",
"..@@@@@@@@@@@@@@@@@@@@@@@@@@....",
"..++++++++++++++++++++++++@@....",
"..++++++++++++++++++++++++@@....",
"@@@@@@@@@@@@@@@@@@@@@@@@@@@@@@..",
"@@@@@@@@@@@@@@@@@@@@@@@@@@@@@@..",
"++++++++++++++++++++++++++++@@..",
"++++++++++++++++++++++++++++@@..",
"@@@@@@@@@@@@@@@@@@@@@@@@@@@@@@..",
"@@@@@@@@@@@@@@@@@@@@@@@@@@@@@@..",
"................................",
"................................"};
