/* XPM */ 
static char * palace_xpm[] = {
"16 16 4 1",
" 	c None",
"!	c #F0BC3C",
"#	c #FCFCFC",
"$	c black",
"!!!!!!!!!!!!!!!!",
"##############$!",
"$$$$$$$$$$$$$$$!",
"!$#$#$#$#$#$#$!!",
"!!$$$$$$$$$$$!!!",
"!!#$!#$!#$!#$!!!",
"!!#$!#$!#$!#$!!!",
"!!#$!#$!#$!#$!!!",
"!!#$!#$!#$!#$!!!",
"!!#$!#$!#$!#$!!!",
"!$$$$$$$$$$$$$!!",
"!############$!!",
"$$$$$$$$$$$$$$$!",
"##############$!",
"$$$$$$$$$$$$$$$!",
"!!!!!!!!!!!!!!!!"};
